{"title":"Project X - 2012 (No Cinavia) 1080p MP4 AAC2.0","uid":10950842,"size":2094664377,"categoryP":"video","categoryS":"hd___movies","magnet":"?xt=urn:btih:817a9e7007680b6b8aaca6194be928c57e968373&amp;dn=Project+X+-+2012+%28No+Cinavia%29+1080p+MP4+AAC2.0&amp;tr=udp%3A%2F%2Ftracker.openbittorrent.com%3A80&amp;tr=udp%3A%2F%2Fopen.demonii.com%3A1337&amp;tr=udp%3A%2F%2Ftracker.coppersurfer.tk%3A6969&amp;tr=udp%3A%2F%2Fexodus.desync.com%3A6969","seeders":8,"leechers":1,"uploader":"AlienMethod","files":-1,"time":1409633002,"description":"Cinavia Removed/CinExHD\nDouble-Encode/DVDFab9\nMP4/AAC 2-Channel Audio\n\n&quot;3 high school seniors throw a birthday party to make a name for themselves. As the night progresses, things spiral out of control as word of the party spreads.&quot;\n\nGeneral\n\nFormat                                   : MPEG-4\nFormat profile                           : Base Media / Version 2\nCodec ID                                 : mp42\nFile size                                : 1.95 GiB\nDuration                                 : 1h 27mn\nOverall bit rate mode                    : Variable\nOverall bit rate                         : 3 178 Kbps\nMovie name                               : ProjectX.2012(NoCinavia)\nEncoded date                             : UTC 2014-09-01 18:57:58\nTagged date                              : UTC 2014-09-01 19:33:39\nWriting application                      : DVDFab\n\nVideo\nID                                       : 1\nFormat                                   : AVC\nFormat/Info                              : Advanced Video Codec\nFormat profile                           : &lt;a class=&quot;__cf_email__&quot; href=&quot;/cdn-cgi/l/email-protection&quot; data-cfemail=&quot;135e727a7d535f273d23&quot;&gt;[email&amp;#160;protected]&lt;/a&gt;&lt;script cf-hash='f9e31' type=&quot;text/javascript&quot;&gt;\n/* &lt;![CDATA[ */!function(){try{var t=&quot;currentScript&quot;in document?document.currentScript:function(){for(var t=document.getElementsByTagName(&quot;script&quot;),e=t.length;e--;)if(t[e].getAttribute(&quot;cf-hash&quot;))return t[e]}();if(t&amp;&amp;t.previousSibling){var e,r,n,i,c=t.previousSibling,a=c.getAttribute(&quot;data-cfemail&quot;);if(a){for(e=&quot;&quot;,r=parseInt(a.substr(0,2),16),n=2;a.length-n;n+=2)i=parseInt(a.substr(n,2),16)^r,e+=String.fromCharCode(i);e=document.createTextNode(e),c.parentNode.replaceChild(e,c)}}}catch(u){}}();/* ]]&gt; */&lt;/script&gt;\nFormat settings, CABAC                   : Yes\nFormat settings, ReFrames                : 1 frame\nFormat settings, GOP                     : M=1, N=24\nCodec ID                                 : avc1\nCodec ID/Info                            : Advanced Video Coding\nDuration                                 : 1h 27mn\nBit rate                                 : 3 045 Kbps\nWidth                                    : 1 920 pixels\nHeight                                   : 1 072 pixels\nDisplay aspect ratio                     : 16:9\nFrame rate mode                          : Constant\nFrame rate                               : 23.976 fps\nColor space                              : YUV\nChroma subsampling                       : 4:2:0\nBit depth                                : 8 bits\nScan type                                : Progressive\nBits/(Pixel*Frame)                       : 0.062\nStream size                              : 1.87 GiB (96%)\nWriting library                          : x264 core\nEncoded date                             : UTC 2014-09-01 18:57:58\nTagged date                              : UTC 2014-09-01 19:33:35\nColor primaries                          : BT.709\nTransfer characteristics                 : BT.709\nMatrix coefficients                      : BT.709\n\nAudio\nID                                       : 2\nFormat                                   : AAC\nFormat/Info                              : Advanced Audio Codec\nFormat profile                           : LC\nCodec ID                                 : 40\nDuration                                 : 1h 27mn\nBit rate mode                            : Variable\nBit rate                                 : 128 Kbps\nMaximum bit rate                         : 218 Kbps\nChannel(s)                               : 2 channels\nChannel positions                        : Front: L R\nSampling rate                            : 48.0 KHz\nCompression mode                         : Lossy\nStream size                              : 80.5 MiB (4%)\nEncoded date                             : UTC 2014-09-01 18:57:58\nTagged date                              : UTC 2014-09-01 19:33:02\n\nm/ AM m/","torrent":{"xt":"urn:btih:817a9e7007680b6b8aaca6194be928c57e968373","amp;dn":"Project+X+-+2012+%28No+Cinavia%29+1080p+MP4+AAC2.0","amp;tr":["udp%3A%2F%2Ftracker.openbittorrent.com%3A80","udp%3A%2F%2Fopen.demonii.com%3A1337","udp%3A%2F%2Ftracker.coppersurfer.tk%3A6969","udp%3A%2F%2Fexodus.desync.com%3A6969"],"infoHash":"817a9e7007680b6b8aaca6194be928c57e968373","infoHashBuffer":{"type":"Buffer","data":[129,122,158,112,7,104,11,107,138,172,166,25,75,233,40,197,126,150,131,115]},"announce":[],"urlList":[]}}